<?xml version="1.0" encoding="UTF-8"?>
<svg id="Layer_2" data-name="Layer 2" xmlns="http://www.w3.org/2000/svg" viewBox="0 0 94.28 108.1">
  <defs>
    <style>
      .cls-1 {
        fill: #0f172a;
      }

      .cls-1, .cls-2, .cls-3, .cls-4, .cls-5, .cls-6, .cls-7 {
        stroke-width: 0px;
      }

      .cls-2 {
        fill: #334155;
      }

      .cls-3 {
        fill: #cbd5e1;
      }

      .cls-4 {
        fill: #e2e8f0;
      }

      .cls-5 {
        fill: #f1f1f2;
      }

      .cls-6 {
        fill: #facc15;
      }

      .cls-7 {
        fill: #f8fafc;
      }
    </style>
  </defs>
  <g id="Layer_1-2" data-name="Layer 1">
    <g>
      <path class="cls-7" d="M2.71,57.76c1.42,3.84,3.15,7.51,5.85,10.66,2.97,3.45,6.73,5.69,10.92,7.3,2.84,1.09,5.71,2.1,8.52,3.25,4.62,1.88,8.32,4.87,10.78,9.28.04.08.11.14.3.38.28-3.39.08-6.58-.49-9.75-.01-.09.05-.24-.15-.18,0,0,.03.02.03.02,0-.18.02-.37-.02-.55-1.28-5.92-4.28-10.59-9.79-13.39-4.2-2.14-8.75-2.75-13.4-2.84-1.74-3.22-2.26-6.68-2-10.28.03-.44.09-.87.14-1.31.06-.01.15-.06.17-.04,3.53,3.31,7.89,5.16,12.27,6.97,2.02.84,4.03,1.73,5.98,2.73,6.62,3.37,10.46,8.78,11.91,15.99,1.03,5.12,1.08,10.28.63,15.46-3.14,1.27-3.6,2.83-1.65,5.66,1.11,1.62,2.55,2.93,4.06,4.16.27.22.45.22.72,0,1.75-1.44,3.43-2.95,4.55-4.96,1.3-2.32.75-3.76-1.71-4.67-.15-.05-.29-.12-.43-.19-.49-5.63-.39-11.21.92-16.74,1.78-7.51,6.46-12.51,13.38-15.59,2.92-1.3,5.87-2.52,8.78-3.84,2.73-1.23,5.29-2.75,7.47-4.83.08-.08.19-.13.38-.26.55,4.16.12,8.07-1.84,11.73-2.45.02-4.89.24-7.3.75-4.9,1.03-9.2,3.11-12.27,7.22-1.96,2.62-3.23,5.54-3.64,8.81,0,0,.03-.02.03-.02-.19-.06-.13.09-.15.18-.59,3.16-.72,6.34-.54,9.49.2.12.26.05.31-.03,2.66-4.83,6.81-7.87,11.87-9.8,2.84-1.09,5.7-2.11,8.53-3.23,6.92-2.74,11.66-7.67,14.51-14.49.42-1.01.82-2.03,1.22-3.04,3.9,7.23,3.36,14.88-2.28,21.16-3.92,4.36-8.92,7.01-14.31,9.04-3.5,1.32-6.81,3-9.69,5.44-1.67,1.42-2.99,3.13-4.21,4.92-1.2,1.76-2.32,3.58-3.69,5.22-2.96,3.56-6.85,4.76-11.33,4.52-4.59-.24-7.96-2.49-10.49-6.23-1.31-1.95-2.54-3.96-4.02-5.79-2.87-3.58-6.68-5.84-10.85-7.51-3.93-1.57-7.82-3.17-11.28-5.67-2.33-1.69-4.44-3.62-6.06-6.01-4.21-6.22-4.05-12.6-.64-19.09Z"/>
      <path class="cls-2" d="M15.27,61.95c4.65.09,9.19.7,13.4,2.84,5.51,2.81,8.52,7.48,9.79,13.39.04.18.01.37.02.55-2.14-2.11-4.92-3.08-7.61-4.17-4.61-1.87-8.89-4.25-12.33-7.92-1.31-1.4-2.49-2.91-3.26-4.69Z"/>
      <path class="cls-1" d="M8.5,9.45c4.62,5.37,10.05,9.67,14.54,14.89,1.7,1.98,3.3,4.03,4.36,6.45,1.79,4.05.81,7.12-3.03,9.33-2.25,1.29-4.64,2.19-7.29,2.23-2.55.04-4.56-1-6.08-3-1.84-2.42-2.62-5.26-3.07-8.19-1.12-7.21-.6-14.39.57-21.71Z"/>
      <path class="cls-4" d="M85.79,9.38c1.2,8,1.83,15.76.22,23.54-.43,2.07-1.12,4.05-2.29,5.83-1.94,2.95-4.84,4.15-8.3,3.45-2.42-.49-4.7-1.36-6.69-2.85-2.47-1.84-3.24-4.19-2.36-7.14.9-3.02,2.81-5.44,4.81-7.78,3.08-3.58,6.57-6.76,9.94-10.04,1.57-1.53,3.12-3.08,4.66-5Z"/>
      <path class="cls-2" d="M55.8,78.72c.41-3.27,1.69-6.19,3.64-8.81,3.07-4.11,7.37-6.19,12.27-7.22,2.4-.5,4.84-.73,7.3-.75-1.6,3.39-4.2,5.9-7.16,8.09-3.16,2.34-6.75,3.83-10.35,5.3-2.07.84-4.08,1.79-5.7,3.39Z"/>
      <path class="cls-1" d="M49.91,91.47c.14.06.28.13.43.19,2.47.92,3.01,2.36,1.71,4.67-1.12,2.01-2.8,3.52-4.55,4.96-.27.22-.44.22-.72,0-1.51-1.24-2.94-2.55-4.06-4.16-1.95-2.83-1.49-4.38,1.65-5.66,1.84-.18,3.69-.17,5.53,0Z"/>
      <path class="cls-5" d="M42.32,71.22s-.03-.08-.05-.11c.02.04.03.08.05.11Z"/>
      <path class="cls-3" d="M38.45,78.7l.03.02c-2.14-2.11-4.92-3.08-7.61-4.17-4.61-1.87-8.89-4.25-12.33-7.92-1.31-1.4-2.49-2.91-3.26-4.69-1.74-3.22-2.26-6.68-2-10.28.03-.44.09-.87.14-1.31.06-.01.15-.06.17-.04,3.53,3.31,7.89,5.16,12.27,6.97,2.02.84,4.03,1.73,5.98,2.73,4.5,2.29,7.71,5.53,9.77,9.63V31.49c.87-.1,1.74-.17,2.61-.22-1.64.1-3.27.27-4.91.54-.52.08-.7.02-.87-.48-1.52-4.38-4.38-7.78-7.88-10.71-3.35-2.81-7.05-5.15-10.63-7.63C14.84,9.45,10.07,5.59,6.72.25c-.04-.06-.16-.06-.25-.09-.26.93-.52,1.83-.76,2.74-1.73,6.45-3.22,12.94-4.26,19.54C.7,27.19.21,31.96.04,36.77c-.14,4.02.09,8.03.63,12.03.41,3.06,1.17,6.02,2.04,8.97,1.42,3.84,3.15,7.51,5.85,10.66,2.97,3.45,6.73,5.69,10.92,7.3,2.84,1.09,5.71,2.1,8.52,3.25,4.62,1.88,8.32,4.87,10.78,9.28.04.08.11.14.3.38.28-3.39.08-6.58-.49-9.75-.05-.06-.1-.12-.15-.18ZM11,39.35c-1.84-2.42-2.62-5.26-3.07-8.19-1.12-7.21-.6-14.39.57-21.71,4.62,5.37,10.05,9.67,14.54,14.89,1.7,1.98,3.3,4.03,4.36,6.45,1.79,4.05.81,7.12-3.03,9.33-2.25,1.29-4.64,2.19-7.29,2.23-2.55.04-4.56-1-6.08-3Z"/>
      <path class="cls-5" d="M49.78,31.25c-1.76-.1-3.53-.1-5.29,0,1.76-.1,3.53-.1,5.29,0Z"/>
      <path class="cls-5" d="M50.06,31.27c.87.05,1.74.12,2.61.22-.87-.1-1.74-.17-2.61-.22Z"/>
      <path class="cls-5" d="M51.62,72.06s-.02.08-.04.12c.01-.04.02-.08.04-.12Z"/>
      <path class="cls-1" d="M93.31,25.6c-.77-5.84-1.93-11.62-3.35-17.34-.68-2.72-1.41-5.42-2.16-8.26-.2.23-.29.31-.35.41-2.7,4.26-6.31,7.65-10.35,10.58-3.76,2.73-7.63,5.3-11.38,8.06-4.39,3.23-8.1,7.05-9.9,12.37-.17.5-.42.45-.85.38-.77-.12-1.53-.22-2.3-.31v38.12c2.39-4.75,6.33-8.16,11.54-10.48,2.92-1.3,5.87-2.52,8.78-3.84,2.73-1.23,5.29-2.75,7.47-4.83.08-.08.19-.13.38-.26.55,4.16.12,8.07-1.84,11.73-1.6,3.39-4.2,5.9-7.16,8.09-3.16,2.34-6.75,3.83-10.35,5.3-2.07.84-4.08,1.79-5.7,3.39l.03-.02c-.05.06-.1.12-.15.18-.59,3.16-.72,6.34-.54,9.49.2.12.26.05.31-.03,2.66-4.83,6.81-7.87,11.87-9.8,2.84-1.09,5.7-2.11,8.53-3.23,6.92-2.74,11.66-7.67,14.51-14.49.42-1.01.82-2.03,1.22-3.04,1.15-3.66,1.95-7.39,2.34-11.21.72-7.01.31-13.99-.6-20.95ZM86,32.91c-.43,2.07-1.12,4.05-2.29,5.83-1.94,2.95-4.84,4.15-8.3,3.45-2.42-.49-4.7-1.36-6.69-2.85-2.47-1.84-3.24-4.19-2.36-7.14.9-3.02,2.81-5.45,4.81-7.78,3.08-3.58,6.57-6.76,9.94-10.04,1.57-1.53,3.12-3.08,4.66-5,1.2,8,1.83,15.76.22,23.54Z"/>
      <path class="cls-5" d="M42.93,72.9c-.04-.13-.08-.25-.13-.38.04.13.08.25.13.38Z"/>
      <path class="cls-5" d="M51.19,73.36c-.13.45-.25.9-.36,1.37.11-.46.23-.92.36-1.37Z"/>
      <path class="cls-5" d="M43.39,74.46c-.04-.14-.08-.28-.11-.41.04.14.08.27.11.41Z"/>
      <path class="cls-6" d="M52.67,69.62V31.49c-3.69-.42-7.38-.42-11.06,0v38.15c.97,1.93,1.68,4.05,2.14,6.36,1.03,5.12,1.08,10.28.63,15.46,1.84-.18,3.69-.17,5.53,0-.49-5.62-.39-11.21.92-16.74.44-1.85,1.06-3.55,1.84-5.11Z"/>
    </g>
  </g>
</svg>