<?xml version="1.0" encoding="UTF-8"?>
<svg id="Layer_2" data-name="Layer 2" xmlns="http://www.w3.org/2000/svg" viewBox="0 0 94.28 108.1">
  <defs>
    <style>
      .cls-1 {
        fill: #0f172a;
      }

      .cls-1, .cls-2, .cls-3 {
        stroke-width: 0px;
      }

      .cls-2 {
        fill: #f472b6;
      }

      .cls-3 {
        fill: #f8fafc;
      }
    </style>
  </defs>
  <g id="Layer_1-2" data-name="Layer 1">
    <g>
      <path class="cls-2" d="M2.71,57.76c-.88-2.94-1.63-5.91-2.04-8.97C.13,44.8-.1,40.79.04,36.77c.17-4.8.66-9.58,1.4-14.33C2.48,15.84,3.98,9.34,5.7,2.9c.24-.91.5-1.81.76-2.74.1.03.22.04.25.09,3.35,5.34,8.12,9.2,13.2,12.73,3.58,2.49,7.28,4.82,10.63,7.63,3.5,2.93,6.36,6.33,7.88,10.71.17.5.35.56.87.48,5.22-.85,10.44-.84,15.66,0,.43.07.68.12.85-.38,1.8-5.32,5.51-9.14,9.9-12.37,3.74-2.75,7.61-5.33,11.38-8.06,4.05-2.93,7.65-6.32,10.35-10.58.06-.1.15-.18.35-.41.75,2.85,1.48,5.55,2.16,8.26,1.42,5.72,2.58,11.49,3.35,17.34.91,6.96,1.32,13.95.6,20.95-.39,3.81-1.19,7.55-2.34,11.21-.41,1.02-.8,2.04-1.22,3.04-2.85,6.82-7.59,11.76-14.51,14.49-2.83,1.12-5.69,2.14-8.53,3.23-5.05,1.93-9.21,4.97-11.87,9.8-.04.08-.1.15-.31.03-.18-3.15-.05-6.33.54-9.49.05-.06.1-.12.15-.18l-.03.02c1.62-1.6,3.63-2.55,5.7-3.39,3.6-1.47,7.19-2.96,10.35-5.3,2.96-2.19,5.56-4.7,7.16-8.09,1.96-3.67,2.39-7.57,1.84-11.73-.19.13-.3.18-.38.26-2.19,2.08-4.74,3.6-7.47,4.83-2.91,1.31-5.86,2.54-8.78,3.84-6.92,3.08-11.6,8.08-13.38,15.59-1.31,5.53-1.41,11.12-.92,16.74-1.84-.17-3.69-.18-5.53,0,.46-5.18.4-10.34-.63-15.46-1.44-7.22-5.29-12.62-11.91-15.99-1.96-1-3.96-1.89-5.98-2.73-4.38-1.82-8.74-3.66-12.27-6.97-.02-.02-.11.02-.17.04-.05.44-.11.87-.14,1.31-.26,3.61.25,7.06,2,10.28.78,1.78,1.95,3.28,3.26,4.69,3.44,3.67,7.72,6.05,12.33,7.92,2.7,1.09,5.47,2.07,7.61,4.17l-.03-.02c.05.06.1.12.15.18.57,3.17.77,6.36.49,9.75-.19-.24-.26-.3-.3-.38-2.46-4.41-6.16-7.4-10.78-9.28-2.81-1.15-5.68-2.16-8.52-3.25-4.19-1.61-7.96-3.85-10.92-7.3-2.7-3.15-4.43-6.81-5.85-10.66ZM8.5,9.45c-1.17,7.32-1.69,14.5-.57,21.71.45,2.93,1.24,5.77,3.07,8.19,1.52,2,3.53,3.04,6.08,3,2.65-.04,5.04-.94,7.29-2.23,3.84-2.21,4.82-5.28,3.03-9.33-1.06-2.41-2.66-4.47-4.36-6.45-4.49-5.22-9.92-9.52-14.54-14.89ZM85.79,9.38c-1.54,1.92-3.09,3.47-4.66,5-3.38,3.28-6.87,6.46-9.94,10.04-2.01,2.34-3.91,4.76-4.81,7.78-.88,2.95-.11,5.3,2.36,7.14,1.99,1.49,4.27,2.36,6.69,2.85,3.46.7,6.36-.5,8.3-3.45,1.17-1.78,1.86-3.76,2.29-5.83,1.61-7.78.98-15.54-.22-23.54Z"/>
      <path class="cls-3" d="M2.71,57.76c1.42,3.84,3.15,7.51,5.85,10.66,2.97,3.45,6.73,5.69,10.92,7.3,2.84,1.09,5.71,2.1,8.52,3.25,4.62,1.88,8.32,4.87,10.78,9.28.04.08.11.14.3.38.28-3.39.08-6.58-.49-9.75-.01-.09.05-.24-.15-.18,0,0,.03.02.03.02,0-.18.02-.37-.02-.55-1.28-5.92-4.28-10.59-9.79-13.39-4.2-2.14-8.75-2.75-13.4-2.84-1.74-3.22-2.26-6.68-2-10.28.03-.44.09-.87.14-1.31.06-.01.15-.06.17-.04,3.53,3.31,7.89,5.16,12.27,6.97,2.02.84,4.03,1.73,5.98,2.73,6.62,3.37,10.46,8.78,11.91,15.99,1.03,5.12,1.08,10.28.63,15.46-3.14,1.27-3.6,2.83-1.65,5.66,1.11,1.62,2.55,2.93,4.06,4.16.27.22.45.22.72,0,1.75-1.44,3.43-2.95,4.55-4.96,1.3-2.32.75-3.76-1.71-4.67-.15-.05-.29-.12-.43-.19-.49-5.63-.39-11.21.92-16.74,1.78-7.51,6.46-12.51,13.38-15.59,2.92-1.3,5.87-2.52,8.78-3.84,2.73-1.23,5.29-2.75,7.47-4.83.08-.08.19-.13.38-.26.55,4.16.12,8.07-1.84,11.73-2.45.02-4.89.24-7.3.75-4.9,1.03-9.2,3.11-12.27,7.22-1.96,2.62-3.23,5.54-3.64,8.81,0,0,.03-.02.03-.02-.19-.06-.13.09-.15.18-.59,3.16-.72,6.34-.54,9.49.2.12.26.05.31-.03,2.66-4.83,6.81-7.87,11.87-9.8,2.84-1.09,5.7-2.11,8.53-3.23,6.92-2.74,11.66-7.67,14.51-14.49.42-1.01.82-2.03,1.22-3.04,3.9,7.23,3.36,14.88-2.28,21.16-3.92,4.36-8.92,7.01-14.31,9.04-3.5,1.32-6.81,3-9.69,5.44-1.67,1.42-2.99,3.13-4.21,4.92-1.2,1.76-2.32,3.58-3.69,5.22-2.96,3.56-6.85,4.76-11.33,4.52-4.59-.24-7.96-2.49-10.49-6.23-1.31-1.95-2.54-3.96-4.02-5.79-2.87-3.58-6.68-5.84-10.85-7.51-3.93-1.57-7.82-3.17-11.28-5.67-2.33-1.69-4.44-3.62-6.06-6.01-4.21-6.22-4.05-12.6-.64-19.09Z"/>
      <path class="cls-1" d="M15.27,61.95c4.65.09,9.19.7,13.4,2.84,5.51,2.81,8.52,7.48,9.79,13.39.04.18.01.37.02.55-2.14-2.11-4.92-3.08-7.61-4.17-4.61-1.87-8.89-4.25-12.33-7.92-1.31-1.4-2.49-2.91-3.26-4.69Z"/>
      <path class="cls-3" d="M8.5,9.45c4.62,5.37,10.05,9.67,14.54,14.89,1.7,1.98,3.3,4.03,4.36,6.45,1.79,4.05.81,7.12-3.03,9.33-2.25,1.29-4.64,2.19-7.29,2.23-2.55.04-4.56-1-6.08-3-1.84-2.42-2.62-5.26-3.07-8.19-1.12-7.21-.6-14.39.57-21.71Z"/>
      <path class="cls-3" d="M85.79,9.38c1.2,8,1.83,15.76.22,23.54-.43,2.07-1.12,4.05-2.29,5.83-1.94,2.95-4.84,4.15-8.3,3.45-2.42-.49-4.7-1.36-6.69-2.85-2.47-1.84-3.24-4.19-2.36-7.14.9-3.02,2.81-5.44,4.81-7.78,3.08-3.58,6.57-6.76,9.94-10.04,1.57-1.53,3.12-3.08,4.66-5Z"/>
      <path class="cls-1" d="M55.8,78.72c.41-3.27,1.69-6.19,3.64-8.81,3.07-4.11,7.37-6.19,12.27-7.22,2.4-.5,4.84-.73,7.3-.75-1.6,3.39-4.2,5.9-7.16,8.09-3.16,2.34-6.75,3.83-10.35,5.3-2.07.84-4.08,1.79-5.7,3.39Z"/>
      <path class="cls-1" d="M49.91,91.47c.14.06.28.13.43.19,2.47.92,3.01,2.36,1.71,4.67-1.12,2.01-2.8,3.52-4.55,4.96-.27.22-.44.22-.72,0-1.51-1.24-2.94-2.55-4.06-4.16-1.95-2.83-1.49-4.38,1.65-5.66,1.84-.18,3.69-.17,5.53,0Z"/>
      <path class="cls-1" d="M38.45,78.7c.19-.06.13.09.15.18-.05-.06-.1-.12-.15-.18Z"/>
      <path class="cls-1" d="M55.68,78.88c.01-.09-.05-.24.15-.18-.05.06-.1.12-.15.18Z"/>
    </g>
  </g>
</svg>