<?xml version="1.0" encoding="UTF-8"?>
<svg id="Layer_2" data-name="Layer 2" xmlns="http://www.w3.org/2000/svg" viewBox="0 0 1470.76 1036.14">
  <defs>
    <style>
      .cls-1 {
        fill: #dc2127;
      }

      .cls-1, .cls-2 {
        stroke-width: 0px;
      }

      .cls-2 {
        fill: #29303a;
      }
    </style>
  </defs>
  <g id="Layer_1-2" data-name="Layer 1">
    <path class="cls-1" d="M409.36,533.03l-.04,2.5s-4.8,125.17-7.12,187.76c-.81,21.81-1.56,43.62-2.01,65.43l-4.71,134.21c-.03.83.06,1.66.09,2.49-.98.11-1.96.33-2.95.33-29.85.02-59.7.03-89.55.01-.98,0-1.95-.28-2.93-.43.38-9.06,1.12-18.11,1.55-27.17,1.55-32.45,1.62-64.94,3.53-97.38,1.21-20.61,1.4-41.27,2.16-61.91,1.43-38.94,2.94-77.88,4.41-116.82,1.9-50.42,3.81-100.85,5.65-151.27.78-21.3,1.35-42.61,2.08-63.92.29-8.49.61-16.98,1.26-25.45.32-4.21-.6-5.62-5.26-5.61-75.8.17-151.59.09-227.39.22-4.29,0-5.8-.72-5.75-5.5.28-26.32.26-52.64.02-78.96-.04-4.7.93-6.07,5.89-6.05,61.31.2,122.62.07,183.92.25,4.71.01,6.15-1.3,5.83-5.83-.34-4.64-.07-9.32-.06-13.99,0-2.56.18-3.51,3.66-2.69,13.31,3.15,26.82,5.49,40.2,8.37,2.7.58,2.34-.98,2.43-2.34.34-5.15.6-10.31.84-15.46.55-11.98.97-23.97,1.65-35.94.17-3-.61-4.65-3.67-5.25-4.13-.82-6.53-2.81-5.34-7.68,1.06-4.34,1.18-8.92,2.27-13.25.72-2.83-.37-3.59-2.66-3.88-2.47-.31-4.96-.64-7.44-.77-29.42-1.58-58.86-2.97-88.27-4.71-28.9-1.7-57.8-3.61-86.68-5.68-19.4-1.39-38.77-3.27-58.16-4.82-2.25-.18-3.21-1.12-3.73-3.16-3.37-13.32-6.79-26.62-10.23-39.93-1.35-5.23-2.21-10.62-4.81-15.47-.18-4.92-2.26-9.44-3.33-14.03,1.35-.81,2.28-.32,3.23-.05,8.13,2.24,16.27,4.45,24.39,6.72,11.46,3.21,22.9,6.45,34.35,9.71,13.18,3.75,26.37,7.5,39.53,11.31,8.24,2.38,16.4,5.01,24.67,7.27,8.15,2.22,16.14,5.71,24.57,6.09,26.94,1.21,53.73,4.81,80.73,4.81,295.88.03,591.76,0,887.64.07,20.34,0,40.55-1.82,60.82-3.04,23.39-1.41,46.67-2.52,69.13-10.16,11.86-4.04,23.9-7.62,36-10.89,13.25-3.57,26.34-7.63,39.49-11.51,10.35-3.06,20.77-5.91,31.49-8.95-.24,4.27-1.62,7.97-1.11,11.81-4.46,17.45-9.09,34.87-13.29,52.39-1.27,5.3-3.46,6.98-9.21,7.31-19.91,1.14-39.75,3.48-59.65,5-19.25,1.48-38.53,2.53-57.79,3.73-23.25,1.45-46.5,2.92-69.76,4.26-13.13.76-26.28,1.33-39.42,1.88-13.76.57-14.32,1.22-11.38,14.56.11.49.33.94.45,1.43,1.71,7.29,1.79,7.61-5.23,9.52-3.78,1.03-4.41,2.68-4.18,6.28,1.02,16.12,1.7,32.27,2.48,48.4.08,1.62.01,3.25.01,5.01,17.2-3.27,33.87-6.44,51.1-9.72,0,5.83.26,11.77-.09,17.67-.25,4.23.75,5.64,5.37,5.62,61.31-.18,122.62-.08,183.93-.21,4.35,0,5.85.78,5.8,5.57-.27,26.82-.2,53.64-.05,80.47.02,3.43-.73,4.45-4.32,4.44l-232.28-.17c-4.06-.03-5.43.87-5.18,5.19,1.91,33.09,2.88,66.22,4.14,99.33,1.18,31.12,2.7,62.22,3.73,93.35,1.43,43.1,3.73,86.18,5.44,129.27.52,13.26,1.29,26.55.26,39.82-.33,4.25,1.51,8.13,1.66,12.33,1.06,29.01,2.28,58.02,3.46,87.03.98,24.29,1.94,48.59,2.96,72.88.15,3.48.59,6.96.89,10.43-.99.1-1.98.28-2.97.28-32.81.02-65.62.02-98.44,0-1.14,0-2.29-.3-3.43-.45-.99-24.46-1.95-48.93-2.99-73.39l-6.28-159.08c-1.29-39.95-4.13-79.85-5.18-119.81-.85-32.31-2.93-64.56-3.68-96.87-.75-31.96-2.71-63.9-3.94-95.86-.15-3.96-1.73-4.46-5.14-4.45-42.49.11-84.98.09-127.48.08-162.8,0-325.59.02-488.39-.14-5.27,0-6.58,1.48-6.73,6.53-1.22,40.62-2.39,81.26-4.45,121.84-.32,6.27-.83,18.92-.83,18.92l-.23,9.95M470.82,262.57c0,5.8.3,11.64-.1,17.43-.32,4.57,1.12,5.73,5.71,5.72,66.47-.16,132.95-.11,199.42-.1,6.33,0,12.66-.08,18.99.04,2.6.05,3.95-.49,3.94-3.53-.12-28.16,2.63-56.22,3.13-84.37.07-4.2-1.02-5.11-5.14-5.1-85.8.13-171.6.09-257.4.12-2.8,0-6.26-1.19-8.22.59-1.75,1.58.81,4.56.68,7.05-.08,1.65-.17,3.44.35,4.96,1.2,3.5.38,5.02-3.46,5.79-5.19,1.04-8.75,3.65-7.82,10.12.38,2.59,1.53,6.6-3.29,7.6-1.02.21-.6,1.79-.5,2.7.33,3.18-.81,4.77-4.19,4.42-1.15-.12-2.44-.2-2.33,1.65.09,1.51.48,2.63,2.32,2.45,1.32-.13,2.73.03,3.96-.37,3.24-1.07,4.16.17,4.05,3.29-.22,6.66-.28,13.32-.3,19.98-.01,2.98-.88,6.73.57,8.75,2.14,3,5.38-.41,8.13-.93,13.75-2.61,27.46-5.45,41.5-8.27ZM896.76,192.75c-41.16,0-82.32.05-123.47-.08-4.09-.01-5.64.59-5.59,5.29.28,27.16.27,54.32.02,81.48-.05,4.96,1.08,6.33,6.23,6.32,63.82-.2,127.64-.16,191.46-.09,10.27.01,20.54.48,30.82.68,1.43.03,3.79.62,4.05-.94.67-4.14,3.39-8.22,1.45-12.47-1.13-2.47-.74-4.86-.95-7.3-.23-2.6.77-2.6,3.17-2.37,6.92.67,13.08,4.85,20.21,4.21,4.04-.36,6.93,2.94,10.78,3.14,1.51.08,2.98.71,2.99-1.82.03-7.98,1.22-16.11.03-23.89-1.42-9.29-1.35-18.56-1.88-27.84-.14-2.41-1.01-3.47-3.24-4.21-10.32-3.41-10.3-3.47-8.35-14.06.03-.16.01-.35.08-.49,2.52-5.44-.42-5.65-4.82-5.63-40.99.13-81.98.08-122.97.08Z"/>
    <path class="cls-2" d="M555.27,98.6c190.58,0,380.98-.03,571.39.05,19.31,0,38.37-1.05,57.54-4.28,21.09-3.55,41.97-8.16,63.06-11.53,10.62-1.7,21.31-3.4,31.5-6.43,12.2-3.63,23.79-9.35,35.6-14.26,20.31-8.44,40.6-16.93,60.88-25.45,15.43-6.48,30.83-13.01,46.23-19.57,12.54-5.33,25.03-10.76,37.58-16.07,2.27-.96,4.28-1.05,5.62,1.94,1.26,2.84,3.22,5.37,4.93,8,2.39,3.69.49,7.48-.32,10.88-5.09,21.24-10.16,42.49-14.7,63.86-.41,1.93-1.43,3.41-2.95,4.44-8.9,6.01-17.69,12.23-26.87,17.8-4.47,2.72-9.81,3.77-15.09,4.41-.51-3.84.87-7.53,1.11-11.81-10.72,3.04-21.14,5.89-31.49,8.95-13.15,3.88-26.24,7.94-39.49,11.51-12.1,3.26-24.14,6.85-36,10.89-22.46,7.65-45.74,8.76-69.13,10.16-20.27,1.22-40.47,3.04-60.82,3.04-295.88-.07-591.76-.05-887.64-.07-27,0-53.79-3.6-80.73-4.81-8.43-.38-16.42-3.87-24.57-6.09-8.27-2.25-16.44-4.88-24.67-7.27-13.17-3.81-26.35-7.56-39.53-11.31-11.44-3.25-22.89-6.5-34.35-9.71-8.12-2.27-16.26-4.48-24.39-6.72-.95-.26-1.88-.76-3.23.05,1.07,4.59,3.15,9.11,3.33,14.03-15.81-3.39-26.04-15.84-38.93-23.99-3.34-2.11-3.16-6.14-3.97-9.4-2.89-11.56-5.36-23.22-8.06-34.82C4.86,35.37,2.56,25.71.16,16.08c-.75-3,1.29-4.92,2.3-7.23.58-1.33,1.71-2.46,2.12-3.82C6.42-1.15,6.25-.96,11.91,1.99c26.72,13.94,53.3,28.18,80.37,41.41,10.26,5.01,21.68,7.69,32.62,11.26,10.31,3.36,20.78,6.27,31.04,9.78,20.96,7.16,41.93,14.11,63.93,17.68,12.41,2.02,24.61,5.31,36.91,7.96,22.18,4.77,44.22,9.07,67.29,8.81,70.8-.79,141.62-.29,212.43-.27h18.76Z"/>
    <path class="cls-2" d="M300.15,925.32c.98.15,1.95.43,2.93.43,29.85.02,59.7.01,89.55-.01.98,0,1.97-.21,2.95-.33,3.34,1.4,6.89.05,10.33.84,3.2.74,5.08,2.26,5.32,5.59.12,1.66.31,3.31.32,4.97.02,29.33.01,58.66,0,87.98,0,9.8-1.52,11.32-11.19,11.32-35.66,0-71.32,0-106.98,0-8.54,0-10.4-1.91-10.4-10.56,0-29.66.13-59.32-.07-88.98-.06-9.06,3.37-10.83,10.44-10.67,2.26.05,4.65.72,6.83-.58Z"/>
    <path class="cls-2" d="M1064.68,925.3c1.14.16,2.29.45,3.43.45,32.81.02,65.62.02,98.44,0,.99,0,1.98-.18,2.97-.28,9.61,1.82,9.93,2.21,9.93,12.37,0,29.12,0,58.24,0,87.37,0,9.32-1.68,10.94-11.06,10.94-35.78-.02-71.56-.01-107.34-.02-8.13,0-10.16-2.05-10.17-10.27-.01-29.46.13-58.91-.09-88.37-.07-9.43,2.48-11.96,11.02-11.57.95.04,1.92-.4,2.88-.61Z"/>
  </g>
</svg>