<?xml version="1.0" encoding="UTF-8"?>
<svg id="_Слой_2" data-name="Слой 2" xmlns="http://www.w3.org/2000/svg" xmlns:xlink="http://www.w3.org/1999/xlink" viewBox="0 0 150.27 150.27">
  <defs>
    <style>
      .cls-1 {
        opacity: .5;
        stroke-width: .48px;
      }

      .cls-1, .cls-2 {
        fill: none;
        stroke: #fff;
      }

      .cls-1, .cls-2, .cls-3 {
        stroke-miterlimit: 10;
      }

      .cls-4 {
        fill: #fff;
      }

      .cls-2 {
        stroke-width: .95px;
      }

      .cls-3 {
        fill: url(#_Безымянный_градиент_172);
        stroke: #1d1d1b;
        stroke-width: .27px;
      }
    </style>
    <linearGradient id="_Безымянный_градиент_172" data-name="Безымянный градиент 172" x1="75.14" y1=".14" x2="75.14" y2="150.14" gradientUnits="userSpaceOnUse">
      <stop offset="0" stop-color="#000040"/>
      <stop offset="1" stop-color="#639"/>
    </linearGradient>
  </defs>
  <g id="_Слой_1-2" data-name="Слой 1">
    <rect class="cls-3" x=".14" y=".14" width="150" height="150"/>
    <g>
      <path class="cls-4" d="M49.85,125.02h-16L69.8,25.14h17.41l19.29,53.61-12.94,7.47-15.04-42.93h0l-28.68,81.74Z"/>
      <circle class="cls-4" cx="61.99" cy="108.78" r="1.91"/>
      <circle class="cls-4" cx="114.51" cy="123.23" r="1.91"/>
      <circle class="cls-4" cx="101.17" cy="86.16" r="1.91"/>
      <line class="cls-4" x1="93.57" y1="86.21" x2="106.5" y2="78.74"/>
      <line class="cls-2" x1="61.99" y1="108.78" x2="101.17" y2="86.16"/>
      <circle class="cls-4" cx="114.26" cy="105.65" r=".72"/>
      <circle class="cls-4" cx="77.75" cy="92.23" r=".72"/>
      <circle class="cls-4" cx="107.36" cy="120.32" r=".72"/>
      <circle class="cls-4" cx="108.29" cy="89.09" r=".72"/>
      <circle class="cls-4" cx="99.2" cy="96.75" r=".72"/>
      <line class="cls-1" x1="77.75" y1="92.33" x2="108.29" y2="89.09"/>
      <line class="cls-1" x1="114.26" y1="105.65" x2="108.29" y2="89.09"/>
      <line class="cls-1" x1="107.36" y1="120.32" x2="114.26" y2="105.65"/>
      <line class="cls-1" x1="99.2" y1="96.75" x2="107.36" y2="120.32"/>
      <line class="cls-1" x1="61.99" y1="108.78" x2="77.75" y2="92.33"/>
      <line class="cls-2" x1="101.17" y1="86.16" x2="114.51" y2="123.23"/>
    </g>
  </g>
</svg>