<?xml version="1.0" encoding="UTF-8"?>
<svg xmlns="http://www.w3.org/2000/svg" viewBox="0 0 198.08 64.45">
  <defs>
    <style>
      .cls-1 {
        fill: currentColor;
      }

      .cls-2 {
        fill: none;
        stroke: currentColor;
        stroke-linecap: round;
        stroke-linejoin: round;
        stroke-width: 4px;
      }
    </style>
  </defs>
  <g>
    <path class="cls-1" d="M45.11,51.31c-.05.29-.32.37-.83.25-.5-.12-.95-.47-1.33-1.04-.38-.91-.58-1.75-.58-2.52s.02-1.92.07-3.46c.29-1.68.68-3.88,1.19-6.59.5-2.71,1.1-5.76,1.8-9.14.7-3.38,1.45-6.92,2.27-10.62.58-1.92,1.04-3.68,1.4-5.29.36-1.61.73-3.42,1.12-5.44,0-.14-.13-.08-.4.18-.26.26-.52.56-.76.9-.24.34-.34.6-.29.79-.67.96-1.27,1.85-1.8,2.66-.48.48-1.06,1.44-1.73,2.88-.67,1.44-1.42,2.78-2.23,4.03-.77,1.44-1.58,2.99-2.45,4.64-.86,1.66-1.63,3.04-2.3,4.14-.43.62-.86,1.34-1.3,2.16-.43.82-.7,1.34-.79,1.58-.19.53-.53,1.16-1.01,1.91-.48.74-1.01,1.48-1.58,2.2-.29.43-.58.88-.86,1.33-.29.46-.6,1-.94,1.62,0,.14-.23.58-.68,1.3-.46.72-1.01,1.51-1.66,2.38s-1.26,1.61-1.84,2.23c-1.68,1.78-3.02,2.82-4.03,3.13-1.01.31-2.14-.11-3.38-1.26-.62-.77-1.08-1.64-1.37-2.63-.29-.98-.41-2.21-.36-3.67.05-1.46.22-3.3.5-5.51.33-1.68.65-3.37.94-5.08.29-1.7.56-3.31.83-4.82.26-1.51.5-2.8.72-3.85.22-1.06.4-1.75.54-2.09.1-.96.07-1.49-.07-1.58-.14-.1-.43.19-.86.86-.19.34-.7,1.16-1.51,2.48-.82,1.32-1.76,2.94-2.84,4.86-1.08,1.92-2.15,4.01-3.2,6.26-1.97,3.65-3.59,6.66-4.86,9.04-1.27,2.38-2.28,4.26-3.02,5.65-.74,1.39-1.28,2.42-1.62,3.1-.34.67-.58,1.13-.72,1.37-.14.24-.26.41-.36.5-.43,0-.88-.18-1.33-.54-.46-.36-.92-.78-1.4-1.26-.14-.34-.2-.67-.18-1.01.02-.34.18-.83.47-1.48s.72-1.64,1.3-2.99c.62-1.25,1.2-2.34,1.73-3.28.53-.94.94-1.5,1.22-1.69.24-.38.46-.77.65-1.15.19-.38.31-.84.36-1.37.24-.29.61-.88,1.12-1.76.5-.89,1.02-1.86,1.55-2.92.38-.62.88-1.44,1.48-2.45.6-1.01,1.23-2.12,1.91-3.35.67-1.22,1.27-2.39,1.8-3.49,2.21-3.79,4.08-7,5.62-9.61,1.54-2.62,2.69-4.28,3.46-5,.24-.24.49-.58.76-1.01.26-.43.4-.82.4-1.15,0-1.01.2-1.93.61-2.77.41-.84.83-1.21,1.26-1.12.48,0,.91.05,1.3.14.38.1.79.41,1.22.94.38.58.72,1.15,1.01,1.73.29.58.26,1.73-.07,3.46,0,.67-.07,1.43-.22,2.27-.14.84-.28,1.61-.4,2.3-.12.7-.21,1.24-.25,1.62-.62,1.87-1.2,3.97-1.73,6.3-.53,2.33-1.01,4.68-1.44,7.06-.43,2.38-.79,4.58-1.08,6.62-.29,2.04-.47,3.72-.54,5.04-.07,1.32-.04,2.08.11,2.27.34.19.62.22.86.07.24-.14.65-.77,1.22-1.87.34-.58.8-1.28,1.4-2.12.6-.84,1.19-1.62,1.76-2.34.38-.67.98-1.68,1.8-3.02.82-1.34,1.86-3.07,3.13-5.18,1.27-2.11,2.81-4.69,4.61-7.74,1.8-3.05,3.85-6.59,6.16-10.62,1.1-1.68,2.15-3.32,3.13-4.93.98-1.61,1.79-2.65,2.41-3.13.67-.62,1.37-.78,2.09-.47.72.31,1.36.95,1.91,1.91.55.96.85,2.16.9,3.6.05.67-.04,1.75-.25,3.24-.22,1.49-.54,3.18-.97,5.08-.43,1.9-.98,3.85-1.66,5.87-.14.82-.37,1.84-.68,3.06-.31,1.22-.66,2.48-1.04,3.78-.38,1.3-.77,2.52-1.15,3.67-.24,1.58-.52,3.14-.83,4.68-.31,1.54-.42,2.57-.32,3.1-.43.77-.72,1.87-.86,3.31-.14,1.44-.22,2.93-.22,4.46-.19,1.87-.34,3.19-.43,3.96-.1.77-.26,1.13-.5,1.08-.62-.19-.94-.07-.94.36Z"/>
    <path class="cls-1" d="M67.03,45.34c-1.01.86-2.17,1.37-3.49,1.51-1.32.14-2.6-.06-3.85-.61-1.25-.55-2.28-1.4-3.1-2.56-.82-1.06-1.34-2.27-1.58-3.64-.24-1.37-.26-3.16-.07-5.36.14-1.87.74-3.76,1.8-5.65,1.06-1.9,2.34-3.59,3.85-5.08,1.51-1.49,3.01-2.52,4.5-3.1.72-.48,1.33-.71,1.84-.68.5.02,1.28.08,2.34.18,1.1.14,1.93.36,2.48.65.55.29,1,.67,1.33,1.15.72.72,1.2,1.43,1.44,2.12.24.7.36,1.38.36,2.05-.19,1.06-.9,2.34-2.12,3.85-1.22,1.51-2.82,2.75-4.79,3.71-1.06.34-2.21.48-3.46.43-1.25-.05-2.28-.36-3.1-.94-.91-.38-1.51-.32-1.8.18s-.55,1.72-.79,3.64c-.19,1.82-.05,3.16.43,4,.48.84,1.13,1.33,1.94,1.48.96.19,1.72.32,2.27.4.55.07,1.24-.13,2.05-.61.77-.48,1.25-.76,1.44-.83.19-.07.35-.17.47-.29l.9-.9c.34-.34.6-.59.79-.76.19-.17.41-.25.65-.25s.46.11.65.32c.19.22.38.37.58.47.48,0,.59.29.32.86-.26.58-.78,1.26-1.55,2.05-.77.79-1.68,1.52-2.74,2.2ZM66.96,30.07c.53-.24,1.08-.59,1.66-1.04.58-.46,1.07-.96,1.48-1.51.41-.55.61-1.02.61-1.4,0-.67-.31-1.24-.94-1.69-.62-.46-1.56-.52-2.81-.18-.53.14-1.13.49-1.8,1.04-.67.55-1.31,1.16-1.91,1.84-.6.67-1.08,1.27-1.44,1.8-.36.53-.49.84-.4.94.14.24.55.42,1.22.54.67.12,1.43.16,2.27.11.84-.05,1.52-.19,2.05-.43Z"/>
    <path class="cls-1" d="M110.03,44.83c-.24-.1-.6-.34-1.08-.72-.48-.38-.89-1.04-1.22-1.98-.34-.94-.5-2.24-.5-3.92.05-1.44.08-2.57.11-3.38.02-.82-.16-1.22-.54-1.22s-1.12.37-2.2,1.12c-1.08.75-2.32,1.74-3.71,2.99-1.39,1.25-2.81,2.64-4.25,4.18-.48.53-.95,1.02-1.4,1.48s-.9.74-1.33.86c-.43.12-.94-.04-1.51-.47l-.79-.65c-.24-.24-.38-.49-.43-.76-.05-.26-.02-.56.07-.9l1.66-4.75c.77-1.73,1.3-2.99,1.58-3.78s.43-1.3.43-1.51-.07-.3-.22-.25c-.38.05-.96.28-1.73.68-.77.41-1.27.8-1.51,1.19-.19,0-.48.22-.86.65-.38.43-.86.84-1.44,1.22-.34.58-1,1.32-1.98,2.23-.98.91-1.96,1.85-2.92,2.81-.62.53-1.24,1.18-1.84,1.94-.6.77-1.1,1.44-1.51,2.02-.41.58-.68.86-.83.86-.62,0-1.19-.17-1.69-.5-.5-.33-.88-.89-1.12-1.66-.38-.82-.38-1.96,0-3.42.38-1.46.82-3.37,1.3-5.72.19-.72.31-1.25.36-1.58.05-.34.13-.68.25-1.04.12-.36.34-.92.65-1.69.31-.77.8-1.92,1.48-3.46.34-.91.54-1.6.61-2.05.07-.46.11-.78.11-.97,0-.48.13-.89.4-1.22.26-.34.59-.58.97-.72.38-.14.74-.17,1.08-.07.53.1,1,.36,1.4.79.41.43.64,1.03.68,1.8.05.58,0,1.09-.14,1.55-.14.46-.29.88-.43,1.26l-.79,1.94c-.24.53-.55,1.3-.94,2.3-.38,1.01-.72,1.93-1.01,2.77-.29.84-.43,1.33-.43,1.48.05.14.22.11.5-.11.29-.22.66-.53,1.12-.94.46-.41.92-.8,1.4-1.19,1.01-.96,2.15-1.88,3.42-2.77,1.27-.89,2.48-1.64,3.64-2.27,1.15-.62,2.04-1.03,2.66-1.22.82,0,1.38.14,1.69.43.31.29.85.82,1.62,1.58.33.34.53.77.58,1.3.05.53.02,1.03-.07,1.51-.05.19-.19.66-.43,1.4-.24.74-.58,1.79-1.01,3.13,1.1-.96,1.99-1.72,2.66-2.27.67-.55,1.18-.97,1.51-1.26,1.87-1.44,3.5-2.35,4.9-2.74,1.39-.38,2.52.12,3.38,1.51.58.53.88,1.1.9,1.73.02.62.04,1.7.04,3.24.05.62.1,1.37.14,2.23.05.86.11,1.64.18,2.34.07.7.16,1.12.25,1.26.14.19.42.35.83.47.41.12.95.23,1.62.32.72.1,1.15.41,1.3.94.14.53-.17,1.03-.94,1.51-.72.43-1.51.62-2.38.58-.86-.05-1.63-.19-2.3-.43Z"/>
    <path class="cls-1" d="M155.29,45.62c-.14.05-.38.02-.72-.07-.34-.1-.67-.22-1.01-.36s-.55-.26-.65-.36c-.19-.19-.37-.48-.54-.86-.17-.38-.18-.95-.04-1.69.14-.74.62-1.72,1.44-2.92.24-.48.53-1.2.86-2.16.34-.96.68-1.98,1.04-3.06.36-1.08.7-2.05,1.01-2.92.31-.86.54-1.46.68-1.8.1-.82.06-1.4-.11-1.76-.17-.36-.59-.56-1.26-.61-.48,0-.85-.05-1.12-.14-.26-.1-.4-.58-.4-1.44.1-.67.28-1.14.54-1.4.26-.26.64-.56,1.12-.9.48-.24.97-.41,1.48-.5.5-.1,1-.12,1.48-.07.48.05.86.22,1.15.5.33.19.55.61.65,1.26.1.65.16,1.31.18,1.98.02.67.06,1.18.11,1.51.48-.38,1.14-.92,1.98-1.62.84-.69,1.57-1.36,2.2-1.98.77-.53,1.68-1.07,2.74-1.62,1.05-.55,1.82-.83,2.3-.83.53,0,1.05.13,1.58.4.53.26.89.59,1.08.97.48.82.71,1.54.68,2.16-.02.62-.3,1.27-.83,1.94-.48.62-1.07,1.06-1.76,1.3-.7.24-1.14.36-1.33.36-.29,0-.65-.22-1.08-.65s-.67-.79-.72-1.08c0-.14-.3-.01-.9.4-.6.41-1.26.91-1.98,1.51-.72.6-1.32,1.14-1.8,1.62-.82,1.01-1.68,2.38-2.59,4.1-.91,1.73-1.99,3.82-3.24,6.26-.58,1.2-.98,2.22-1.22,3.06-.24.84-.58,1.33-1.01,1.48Z"/>
    <path class="cls-1" d="M180.04,64.13c-.36-.29-.71-.64-1.04-1.04-.34-.41-.48-.76-.43-1.04-.19-.67-.16-1.5.11-2.48.26-.98.85-2.44,1.76-4.36.48-.77.92-1.68,1.33-2.74.41-1.06.88-2.11,1.4-3.17.24-.43.77-1.37,1.58-2.81.82-1.44,1.69-3.07,2.63-4.9.94-1.82,1.71-3.55,2.34-5.18-1.25,1.3-2.4,2.6-3.46,3.92-1.06,1.32-2.03,2.39-2.92,3.2-.89.82-1.72,1.2-2.48,1.15-.62-.14-1.28-.37-1.98-.68-.7-.31-1.17-.88-1.4-1.69-.19-1.06-.25-2.4-.18-4.03.07-1.63.37-4.1.9-7.42.38-1.63.61-2.89.68-3.78.07-.89.04-1.55-.11-1.98-.14-.43-.41-.82-.79-1.15-.62-.58-.95-1.09-.97-1.55-.03-.46.3-.85.97-1.19,1.01-.24,1.73-.32,2.16-.25.43.07.96.47,1.58,1.19.38.62.73,1.21,1.04,1.76.31.55.47,1.5.47,2.84,0,.58-.08,1.34-.25,2.3-.17.96-.31,1.86-.43,2.7-.12.84-.21,1.43-.25,1.76-.48,1.78-.78,3.31-.9,4.61-.12,1.3-.06,1.94.18,1.94.96-.77,1.88-1.64,2.77-2.63.89-.98,1.82-2.11,2.81-3.38.98-1.27,2.08-2.72,3.28-4.36.43-.82.86-1.61,1.3-2.38.43-.77.79-1.56,1.08-2.38.29-.62.58-1.13.86-1.51.29-.38.53-.6.72-.65.24-.1.54-.07.9.07.36.14.7.3,1.01.47.31.17.47.3.47.4.05.05.17.1.36.14.19.05.4.08.61.11.22.02.32.11.32.25,0,.1-.11.41-.32.94-.22.53-.46,1.12-.72,1.76-.26.65-.49,1.22-.68,1.73-.19.5-.26.8-.22.9.09.1.02.44-.22,1.04-.24.6-.52,1.26-.83,1.98-.31.72-.59,1.37-.83,1.94-.48,1.58-1.03,3.16-1.66,4.72-.62,1.56-1.37,3.11-2.23,4.64-.29.58-.71,1.46-1.26,2.66-.55,1.2-1.08,2.39-1.58,3.56-.5,1.18-.9,2.08-1.19,2.7-.19.38-.47,1-.83,1.84-.36.84-.75,1.76-1.15,2.77-.41,1.01-.8,1.96-1.19,2.84-.38.89-.67,1.57-.86,2.05-.1.91-.31,1.58-.65,2.02-.19,0-.53.02-1.01.07-.05.1-.25,0-.61-.29Z"/>
    <g>
      <path class="cls-2" d="M132.1,41.77l4.67-17.41"/>
      <path class="cls-2" d="M137.91,36.15c-2.19-1.33-3.25-3.95-2.58-6.43-.67,2.48-2.89,4.22-5.45,4.28"/>
      <path class="cls-2" d="M143.73,28.38c1.62-1.62,1.62-4.26,0-5.88-1.62-1.62-4.26-1.62-5.88,0-.52.52-.89,1.16-1.08,1.87.59-2.22-.72-4.5-2.94-5.1-2.22-.59-4.5.72-5.1,2.94-.19.71-.19,1.45,0,2.15"/>
      <path class="cls-2" d="M144.75,26.68c2.67,1.5,3.61,4.89,2.11,7.56-.22.39-.49.75-.79,1.08"/>
      <path class="cls-2" d="M140.14,43.93c2.96.79,6-.96,6.79-3.92.51-1.91-.03-3.96-1.44-5.36"/>
      <path class="cls-2" d="M142.96,43.94c-.41,3.04-3.2,5.17-6.23,4.76-3.04-.41-5.17-3.2-4.76-6.23.03-.23.08-.47.14-.69-.8,2.96-3.84,4.71-6.8,3.91-2.96-.8-4.71-3.84-3.91-6.8.06-.23.14-.45.23-.67"/>
      <path class="cls-2" d="M124.06,39.62c-2.96-.79-4.71-3.83-3.92-6.79.51-1.91,2.01-3.41,3.92-3.92"/>
      <path class="cls-2" d="M128.69,22.37c-3.06-.03-5.57,2.43-5.6,5.49,0,.45.05.9.15,1.33"/>
    </g>
  </g>
</svg>