<?xml version="1.0" encoding="UTF-8"?>
<svg id="Layer_2" data-name="Layer 2" xmlns="http://www.w3.org/2000/svg" xmlns:xlink="http://www.w3.org/1999/xlink" viewBox="0 0 100 125">
  <defs>
    <style>
      .cls-1 {
        fill: #b4ff8e;
      }

      .cls-1, .cls-2, .cls-3, .cls-4, .cls-5, .cls-6, .cls-7, .cls-8, .cls-9 {
        stroke-width: 0px;
      }

      .cls-2 {
        fill: #75cb46;
      }

      .cls-3 {
        fill: #83df54;
      }

      .cls-4 {
        fill: none;
      }

      .cls-10 {
        clip-path: url(#clippath);
      }

      .cls-5 {
        fill: #aaf783;
      }

      .cls-6 {
        fill: #69b938;
      }

      .cls-7 {
        fill: #88e800;
      }

      .cls-7, .cls-8 {
        opacity: .5;
      }

      .cls-8 {
        fill: #fff;
      }

      .cls-9 {
        fill: #92f266;
      }
    </style>
    <clipPath id="clippath">
      <polygon class="cls-4" points="75 79.18 75 45.82 50 29.73 25 45.82 25 79.18 50 95.27 75 79.18"/>
    </clipPath>
  </defs>
  <g id="Layer_1-2" data-name="Layer 1">
    <g>
      <polygon class="cls-7" points="50 0 0 32.18 0 92.82 50 125 100 92.82 100 32.18 50 0"/>
      <polygon class="cls-9" points="75 79.18 75 45.82 50 29.73 25 45.82 25 79.18 50 95.27 75 79.18"/>
      <polygon class="cls-1" points="0 32.18 25 45.82 50 29.73 50 0 0 32.18"/>
      <polygon class="cls-3" points="75 45.82 100 32.18 50 0 50 29.73 75 45.82"/>
      <polygon class="cls-2" points="100 92.82 75 79.18 75 45.82 100 32.18 100 92.82"/>
      <polygon class="cls-6" points="50 125 50 95.27 75 79.18 100 92.82 50 125"/>
      <polygon class="cls-3" points="0 92.82 25 79.18 50 95.27 50 125 0 92.82"/>
      <polygon class="cls-5" points="0 32.18 25 45.82 25 79.18 0 92.82 0 32.18"/>
      <g class="cls-10">
        <g>
          <rect class="cls-8" x="-5.38" y="51.04" width="98.3" height="6.13" transform="translate(-25.43 46.8) rotate(-45)"/>
          <rect class="cls-8" x="4.77" y="62.25" width="98.3" height="12.67" transform="translate(-32.71 58.21) rotate(-45)"/>
        </g>
      </g>
    </g>
  </g>
</svg>