<?xml version="1.0" encoding="UTF-8"?>
<svg id="Layer_2" data-name="Layer 2" xmlns="http://www.w3.org/2000/svg" viewBox="0 0 163.48 160.99">
  <defs>
    <style>
      .cls-1 {
        fill: #fbb03b;
      }

      .cls-1, .cls-2 {
        stroke-width: 0px;
      }

      .cls-2 {
        fill: #4b8be5;
      }

      .cls-3 {
        fill: #fff;
        stroke: #fff;
        stroke-miterlimit: 10;
        stroke-width: 10px;
      }
    </style>
  </defs>
  <g id="Layer_1-2" data-name="Layer 1">
    <g>
      <path class="cls-1" d="M65.74,148.78l-12.39,12.22-1.64-17.32c-1.17-12.41-12.09-21.57-24.51-20.57l-17.34,1.4,9.88-14.32c7.08-10.26,4.6-24.29-5.56-31.51L0,68.59l16.77-4.62c12.01-3.31,19.14-15.65,16-27.71l-4.39-16.84,15.82,7.24c11.33,5.19,24.72.31,30.07-10.94l7.46-15.72,7.46,15.72c5.34,11.26,18.74,16.13,30.07,10.94l15.82-7.24-4.39,16.84c-3.14,12.06,3.99,24.4,16,27.71l16.77,4.62-14.18,10.08c-10.16,7.22-12.63,21.26-5.56,31.51l9.88,14.32-17.34-1.4c-12.42-1-23.34,8.16-24.51,20.57l-1.64,17.32-12.39-12.22c-8.87-8.75-23.13-8.75-32,0Z"/>
      <circle class="cls-3" cx="81.74" cy="82.5" r="46"/>
      <path class="cls-2" d="M90.42,42.56c3.14,5.79,4.92,12.43,4.92,19.48,0,22.62-18.34,40.95-40.95,40.95-2.61,0-5.16-.25-7.64-.72,6.93,12.79,20.47,21.47,36.03,21.47,22.62,0,40.95-18.34,40.95-40.95,0-20.01-14.35-36.65-33.32-40.23Z"/>
      <path class="cls-2" d="M77.03,60.63l10.71,2.86-10.71,2.86c-2.16.58-3.85,2.27-4.43,4.43l-2.86,10.71-2.86-10.71c-.58-2.16-2.27-3.85-4.43-4.43l-10.71-2.86,10.71-2.86c2.16-.58,3.85-2.27,4.43-4.43l2.86-10.71,2.86,10.71c.58,2.16,2.27,3.85,4.43,4.43Z"/>
      <path class="cls-2" d="M56.89,81.56l5.35,1.43-5.35,1.43c-1.08.29-1.92,1.13-2.21,2.21l-1.43,5.35-1.43-5.35c-.29-1.08-1.13-1.92-2.21-2.21l-5.35-1.43,5.35-1.43c1.08-.29,1.92-1.13,2.21-2.21l1.43-5.35,1.43,5.35c.29,1.08,1.13,1.92,2.21,2.21Z"/>
    </g>
  </g>
</svg>